<svg xmlns="http://www.w3.org/2000/svg" viewBox="0 0 122.88 89.2" style="enable-background:new 0 0 122.88 89.2" xml:space="preserve">
  <path d="M122.88 21.37c.05 2.89-.53 11.16-1.68 24.86h-1.78V89.2h-6V46.23h-.99V0c2.02.31 3.76 1.23 5.15 2.75 3.49 3.56 5.25 9.78 5.3 18.62zm-15.61 23.15c0 12.04-4.24 22.33-12.72 30.81-8.5 8.5-18.77 12.74-30.81 12.74-12 0-22.26-4.24-30.78-12.74-8.5-8.48-12.77-18.77-12.77-30.81 0-12 4.26-22.24 12.77-30.76C41.49 5.26 51.75.99 63.74.99c12.04 0 22.31 4.26 30.81 12.77 8.48 8.52 12.72 18.76 12.72 30.76zm-86.58-21.3c0 2.96-1.23 5.4-3.69 7.3-2.43 1.9-3.66 3.57-3.66 4.96V89.2h-6V35.48c0-1.4-1.23-3.06-3.66-4.96C1.23 28.62 0 26.19 0 23.22 0 15.18 1.78 7.42 5.37 0v19.9h3.18V0h3.52v19.9h3.25V0c3.57 7.42 5.37 15.18 5.37 23.22zm74.8 21.3c0-8.74-3.08-16.21-9.27-22.4-6.19-6.19-13.68-9.27-22.48-9.27-8.77 0-16.24 3.08-22.4 9.27-6.19 6.19-9.3 13.66-9.3 22.4 0 8.76 3.11 16.23 9.3 22.45 6.16 6.21 13.63 9.32 22.4 9.32 8.79 0 16.28-3.11 22.48-9.32 6.18-6.22 9.27-13.69 9.27-22.45zm-3.18 0c0 7.9-2.77 14.64-8.36 20.23-5.57 5.56-12.31 8.36-20.21 8.36-7.85 0-14.58-2.8-20.16-8.36-5.57-5.59-8.36-12.33-8.36-20.23 0-7.85 2.79-14.58 8.36-20.14 5.59-5.56 12.31-8.36 20.16-8.36 7.9 0 14.65 2.8 20.21 8.36 5.59 5.56 8.36 12.29 8.36 20.14z" style="fill: #728c2b; fill-rule:evenodd; clip-rule:evenodd"/>
</svg>